<svg xmlns="http://www.w3.org/2000/svg" version="1.1" xmlns:xlink="http://www.w3.org/1999/xlink" xmlns:svgjs="http://svgjs.dev/svgjs" width="2000" height="2000" viewBox="0 0 2000 2000"><g transform="matrix(1,0,0,1,-0.28443113772425477,-0.28443113772459583)"><svg viewBox="0 0 334 334" data-background-color="#ffffff" preserveAspectRatio="xMidYMid meet" height="2000" width="2000" xmlns="http://www.w3.org/2000/svg" xmlns:xlink="http://www.w3.org/1999/xlink"><g id="tight-bounds" transform="matrix(1,0,0,1,0.04749999999998522,0.04750000000001364)"><svg viewBox="0 0 333.90454557049503 333.90454557049503" height="333.90454557049503" width="333.90454557049503"><g><svg></svg></g><g><svg viewBox="0 0 333.90454557049503 333.90454557049503" height="333.90454557049503" width="333.90454557049503"><g><path d="M0 166.952c0-92.205 74.747-166.952 166.952-166.952 92.205 0 166.952 74.747 166.953 166.952 0 92.205-74.747 166.952-166.953 166.953-92.205 0-166.952-74.747-166.952-166.953zM166.952 327.038c88.413 0 160.086-71.673 160.086-160.086 0-88.413-71.673-160.086-160.086-160.086-88.413 0-160.086 71.673-160.086 160.086 0 88.413 71.673 160.086 160.086 160.086z" data-fill-palette-color="tertiary" fill="#c10000" stroke="transparent"></path><ellipse rx="160.27418187383762" ry="160.27418187383762" cx="166.95227278524752" cy="166.95227278524752" fill="#c10000" stroke="transparent" stroke-width="0" fill-opacity="1" data-fill-palette-color="tertiary"></ellipse></g><g transform="matrix(1,0,0,1,130.77271999663873,71.17305217166896)"><svg viewBox="0 0 72.35910557721755 191.55844122715712" height="191.55844122715712" width="72.35910557721755"><g><svg viewBox="0 0 72.35910557721755 191.55844122715712" height="191.55844122715712" width="72.35910557721755"><g><svg viewBox="0 0 180.92744895963295 478.9746891070684" height="191.55844122715712" width="72.35910557721755"><g transform="matrix(1,0,0,1,0,155.6687374910993)"><svg viewBox="0 0 180.92744895963295 323.3059516159691" height="323.3059516159691" width="180.92744895963295"><g id="textblocktransform"><svg viewBox="0 0 180.92744895963295 323.3059516159691" height="323.3059516159691" width="180.92744895963295" id="textblock"><g><svg viewBox="0 0 180.92744895963295 190.3746100603733" height="190.3746100603733" width="180.92744895963295"><g transform="matrix(1,0,0,1,0,0)"><svg width="180.92744895963295" viewBox="1.8599999999999999 -32.23 30.85 32.47" height="190.3746100603733" data-palette-color="#ffffff"><path d="M14.01-30.08L14.01-30.08Q11.82-30.08 10.6-29.74L10.6-29.74Q10.4-29.69 10.28-29.37 10.16-29.05 10.08-27.91 10.01-26.76 10.01-24.37L10.01-24.37 10.01-18.46Q10.01-17.04 14.26-17.04L14.26-17.04 15.48-17.04Q17.19-17.04 19.02-18.75 20.85-20.46 20.85-23.29L20.85-23.29Q20.85-30.08 14.01-30.08ZM14.79-32.23L14.79-32.23Q16.46-32.23 18.16-31.74 19.87-31.25 21.53-30.27 23.19-29.3 24.27-27.49 25.34-25.68 25.34-23.29L25.34-23.29Q25.34-21.24 23.8-18.99 22.27-16.75 19.63-15.53L19.63-15.53Q19.14-15.33 19.34-15.04L19.34-15.04Q21.78-9.91 24.95-6.45L24.95-6.45Q29.64-1.32 32.57-1.32L32.57-1.32Q32.71-1.03 32.71-0.63L32.71-0.63Q32.71-0.2 32.57 0.1L32.57 0.1Q32.03 0.24 31.25 0.24L31.25 0.24Q24.41 0.24 19.38-6.79L19.38-6.79Q18.6-7.86 17.6-9.35 16.6-10.84 16.14-11.5 15.67-12.16 15.06-12.94 14.45-13.72 13.99-14.11 13.53-14.5 12.99-14.75L12.99-14.75Q12.45-14.94 11.18-14.94L11.18-14.94Q10.79-14.94 10.6-14.92 10.4-14.89 10.21-14.7 10.01-14.5 10.01-14.11L10.01-14.11 10.01-6.93Q10.01-3.66 10.4-2.69L10.4-2.69Q10.64-2.05 12.13-1.66 13.62-1.27 14.26-1.27L14.26-1.27Q14.45-1.27 14.45-0.59L14.45-0.59Q14.45-0.15 14.36 0.15L14.36 0.15Q9.47-0.1 8.01-0.1L8.01-0.1 2.05 0.15Q1.9 0 1.9-0.73L1.9-0.73Q1.9-1.37 2.05-1.37L2.05-1.37Q2.73-1.37 3.96-1.66 5.18-1.95 5.42-2.39L5.42-2.39Q5.76-2.98 5.76-6.98L5.76-6.98 5.76-25.44Q5.76-28.32 5.42-29.64L5.42-29.64Q5.27-30.03 3.98-30.37 2.69-30.71 2.05-30.71L2.05-30.71Q1.86-30.71 1.86-31.3L1.86-31.3Q1.86-31.93 2.05-32.13L2.05-32.13 7.91-32.03Q9.38-32.03 11.38-32.13 13.38-32.23 14.79-32.23Z" opacity="1" transform="matrix(1,0,0,1,0,0)" fill="#ffffff" class="wordmark-text-0" data-fill-palette-color="quaternary" id="text-0"></path></svg></g></svg></g><g transform="matrix(1,0,0,1,0,235.317486504986)"><svg viewBox="0 0 180.92744895963295 87.98846511098309" height="87.98846511098309" width="180.92744895963295"><g transform="matrix(1,0,0,1,0,0)"><svg width="180.92744895963295" viewBox="2.9 -35 96.83999999999999 47.1" height="87.98846511098309" data-palette-color="#ffffff"><path d="M2.9-30.05L2.9-35 7.25-35 7.25-30.05 2.9-30.05ZM2.9 0L2.9-24.5 7.25-24.5 7.25 0 2.9 0ZM20.05 0.5Q17.2 0.5 15.82-1.2 14.45-2.9 14.45-5.35L14.45-5.35 14.45-21.05 11.05-21.05 11.45-24.5 14.45-24.5 14.45-30.55 18.8-31 18.8-24.5 24.1-24.5 24.1-21.05 18.8-21.05 18.8-7.1Q18.8-4.85 19.62-3.95 20.45-3.05 22.5-3.05L22.5-3.05 24.05-3.05 23.65 0.5 20.05 0.5ZM34.2 0.5Q29.9 0.5 26.75-1.5L26.75-1.5 27.3-5.9Q30.5-3.4 33.9-3.4L33.9-3.4Q35.7-3.4 36.72-4.15 37.75-4.9 37.75-6.35L37.75-6.35Q37.75-7.45 37.27-8.15 36.8-8.85 35.7-9.5 34.59-10.15 32.3-11.2L32.3-11.2Q29.6-12.45 28.35-14.05 27.1-15.65 27.1-18.2L27.1-18.2Q27.1-21.2 29.2-23.1 31.3-25 34.84-25L34.84-25Q38.45-25 41.15-23.4L41.15-23.4 40.59-19.35Q39.25-20.25 38.05-20.68 36.84-21.1 35.2-21.1L35.2-21.1Q33.45-21.1 32.45-20.35 31.45-19.6 31.45-18.25L31.45-18.25Q31.45-16.9 32.32-16.2 33.2-15.5 35.75-14.35L35.75-14.35Q39.3-12.75 40.75-11.13 42.2-9.5 42.2-6.85L42.2-6.85Q42.2-3.4 40.05-1.45 37.9 0.5 34.2 0.5L34.2 0.5ZM68.79-24.5L73.14-24.5 73.14 0 69.44 0 69.14-3Q68.14-1.35 66.44-0.43 64.74 0.5 62.69 0.5L62.69 0.5Q58.84 0.5 56.97-2.08 55.09-4.65 55.09-9.45L55.09-9.45 55.09-24.5 59.44-24.5 59.44-10Q59.44-6.7 60.42-5.08 61.39-3.45 63.69-3.45L63.69-3.45Q65.29-3.45 66.59-4.35 67.89-5.25 68.79-6.85L68.79-6.85 68.79-24.5ZM89.99-25Q92.94-25 95.16-23.33 97.39-21.65 98.56-18.75 99.74-15.85 99.74-12.25L99.74-12.25Q99.74-6.65 97.19-3.08 94.64 0.5 89.99 0.5L89.99 0.5Q88.09 0.5 86.46-0.18 84.84-0.85 83.69-2.15L83.69-2.15 83.69 12.1 79.34 12.1 79.34-24.5 82.69-24.5 83.09-21.55Q85.74-25 89.99-25L89.99-25ZM89.19-3.35Q92.04-3.35 93.66-5.7 95.29-8.05 95.29-12.25L95.29-12.25Q95.29-16.4 93.66-18.75 92.04-21.1 89.19-21.1L89.19-21.1Q87.69-21.1 86.29-20.1 84.89-19.1 84.01-17.1 83.14-15.1 83.14-12.25L83.14-12.25Q83.14-9.3 84.01-7.3 84.89-5.3 86.26-4.33 87.64-3.35 89.19-3.35L89.19-3.35Z" opacity="1" transform="matrix(1,0,0,1,0,0)" fill="#ffffff" class="slogan-text-1" data-fill-palette-color="quaternary" id="text-1"></path></svg></g></svg></g></svg></g></svg></g><g transform="matrix(1,0,0,1,34.557142751289895,0)"><svg viewBox="0 0 111.81316345705316 110.72586104648661" height="110.72586104648661" width="111.81316345705316"><g><svg xmlns="http://www.w3.org/2000/svg" xmlns:xlink="http://www.w3.org/1999/xlink" version="1.1" x="0" y="0" viewBox="4.083999999999997 4.531 91.832 90.93900000000001" enable-background="new 0 0 100 100" xml:space="preserve" height="110.72586104648661" width="111.81316345705316" class="icon-icon-0" data-fill-palette-color="quaternary" id="icon-0"><g fill="#ffffff" data-fill-palette-color="quaternary"><path fill="none" d="M27.751 31.829v37.153c0 1.682 1.367 3.047 3.047 3.047h37.153c1.682 0 3.048-1.365 3.048-3.047V31.829c0-1.68-1.366-3.047-3.048-3.047H30.798C29.118 28.782 27.751 30.149 27.751 31.829zM40.021 45.799c0-2.358 1.912-4.271 4.27-4.271h10.168c2.357 0 4.27 1.912 4.27 4.271v9.215c0 2.358-1.912 4.271-4.27 4.271H44.291c-2.358 0-4.27-1.912-4.27-4.271V45.799z"></path><path d="M26.684 31.829v37.153c0 2.27 1.846 4.115 4.115 4.115h37.153c2.27 0 4.115-1.846 4.115-4.115V31.829c0-2.269-1.846-4.114-4.115-4.114H30.798C28.529 27.715 26.684 29.561 26.684 31.829zM70.999 31.829v37.153c0 1.682-1.366 3.047-3.048 3.047H30.798c-1.681 0-3.047-1.365-3.047-3.047V31.829c0-1.68 1.367-3.047 3.047-3.047h37.153C69.633 28.782 70.999 30.149 70.999 31.829z" fill="#ffffff" data-fill-palette-color="quaternary"></path><path d="M44.291 59.284h10.168c2.357 0 4.27-1.912 4.27-4.271v-9.215c0-2.358-1.912-4.271-4.27-4.271H44.291c-2.358 0-4.27 1.912-4.27 4.271v9.215C40.021 57.372 41.933 59.284 44.291 59.284z" fill="#ffffff" data-fill-palette-color="quaternary"></path><circle cx="35.146" cy="22.323" r="3.0" fill="#ffffff" data-fill-palette-color="quaternary"></circle><path d="M53.896 25.323c1.657 0 3-1.344 3-3 0-1.486-1.082-2.71-2.5-2.95V8.51h17.446c0.244 1.682 1.679 2.979 3.429 2.979 1.921 0 3.479-1.558 3.479-3.479s-1.559-3.479-3.479-3.479c-1.75 0-3.185 1.297-3.429 2.979H53.396v11.863c-1.417 0.239-2.5 1.464-2.5 2.95C50.896 23.979 52.239 25.323 53.896 25.323z" fill="#ffffff" data-fill-palette-color="quaternary"></path><path d="M44.479 75.489c-1.656 0-3 1.344-3 3 0 1.485 1.083 2.71 2.5 2.95V91.49h-1.925c-0.245-1.683-1.679-2.979-3.429-2.979-1.921 0-3.479 1.558-3.479 3.479 0 1.921 1.558 3.479 3.479 3.479 1.75 0 3.184-1.297 3.429-2.979h2.925V81.439c1.418-0.24 2.5-1.465 2.5-2.95C47.479 76.833 46.136 75.489 44.479 75.489z" fill="#ffffff" data-fill-palette-color="quaternary"></path><path d="M74.208 36.947c0 1.656 1.344 3 3 3 1.485 0 2.71-1.083 2.95-2.5h1.518c0.244 1.683 1.678 2.979 3.428 2.979 1.922 0 3.479-1.558 3.479-3.479s-1.558-3.479-3.479-3.479c-1.75 0-3.184 1.296-3.428 2.979h-1.518c-0.24-1.418-1.465-2.5-2.95-2.5C75.552 33.947 74.208 35.29 74.208 36.947z" fill="#ffffff" data-fill-palette-color="quaternary"></path><path d="M24.542 64.697c0-1.656-1.344-3-3-3-1.486 0-2.71 1.083-2.95 2.5h-2.122c-0.244-1.683-1.679-2.979-3.429-2.979-1.921 0-3.479 1.557-3.479 3.479s1.558 3.479 3.479 3.479c1.75 0 3.185-1.296 3.429-2.979h2.122c0.239 1.418 1.464 2.5 2.95 2.5C23.198 67.697 24.542 66.354 24.542 64.697z" fill="#ffffff" data-fill-palette-color="quaternary"></path><path d="M25.021 11.489c1.75 0 3.184-1.297 3.429-2.979h6.196v10.813h0.5 0.5V7.51H28.45c-0.245-1.682-1.679-2.979-3.429-2.979-1.921 0-3.479 1.558-3.479 3.479S23.1 11.489 25.021 11.489z" fill="#ffffff" data-fill-palette-color="quaternary"></path><path d="M43.979 11.439v7.935c-1.417 0.239-2.5 1.464-2.5 2.95 0 1.656 1.344 3 3 3 1.657 0 3-1.344 3-3 0-1.486-1.082-2.71-2.5-2.95v-7.935c1.683-0.245 2.979-1.679 2.979-3.429 0-1.921-1.558-3.479-3.479-3.479S41 6.089 41 8.01C41 9.76 42.296 11.194 43.979 11.439z" fill="#ffffff" data-fill-palette-color="quaternary"></path><path d="M66.375 13.188c0-1.921-1.559-3.479-3.479-3.479s-3.479 1.558-3.479 3.479c0 1.75 1.297 3.184 2.979 3.429v2.757c-1.417 0.239-2.5 1.464-2.5 2.95 0 1.656 1.344 3 3 3 1.657 0 3-1.344 3-3 0-1.486-1.082-2.71-2.5-2.95v-2.757C65.078 16.372 66.375 14.938 66.375 13.188z" fill="#ffffff" data-fill-palette-color="quaternary"></path><path d="M91.938 31.144V45.78H80.158c-0.24-1.417-1.465-2.5-2.95-2.5-1.656 0-3 1.344-3 3 0 1.657 1.344 3 3 3 1.485 0 2.71-1.082 2.95-2.5h12.779V31.144c1.682-0.244 2.979-1.679 2.979-3.429 0-1.921-1.558-3.479-3.479-3.479-1.922 0-3.479 1.558-3.479 3.479C88.958 29.465 90.255 30.899 91.938 31.144z" fill="#ffffff" data-fill-palette-color="quaternary"></path><path d="M92.063 49.219c-1.75 0-3.185 1.296-3.43 2.979h-4.717v3h-3.758c-0.24-1.417-1.465-2.5-2.95-2.5-1.656 0-3 1.344-3 3 0 1.657 1.344 3 3 3 1.485 0 2.71-1.082 2.95-2.5h4.758v-3h3.717c0.245 1.683 1.68 2.979 3.43 2.979 1.921 0 3.479-1.557 3.479-3.479S93.983 49.219 92.063 49.219z" fill="#ffffff" data-fill-palette-color="quaternary"></path><path d="M54.396 88.561v-7.121c1.418-0.24 2.5-1.465 2.5-2.95 0-1.656-1.343-3-3-3-1.656 0-3 1.344-3 3 0 1.485 1.083 2.71 2.5 2.95v7.121c-1.683 0.245-2.979 1.68-2.979 3.43 0 1.921 1.558 3.479 3.479 3.479s3.479-1.558 3.479-3.479C57.375 90.24 56.078 88.806 54.396 88.561z" fill="#ffffff" data-fill-palette-color="quaternary"></path><path d="M71.729 83.511c-1.75 0-3.184 1.297-3.428 2.979h-4.905v-5.051c1.418-0.24 2.5-1.465 2.5-2.95 0-1.656-1.343-3-3-3-1.656 0-3 1.344-3 3 0 1.485 1.083 2.71 2.5 2.95v6.051h5.905c0.244 1.682 1.678 2.979 3.428 2.979 1.922 0 3.479-1.558 3.479-3.479C75.208 85.068 73.65 83.511 71.729 83.511z" fill="#ffffff" data-fill-palette-color="quaternary"></path><path d="M91.396 68.344c-1.75 0-3.185 1.297-3.429 2.979h-4.092v-7.126h-3.717c-0.24-1.417-1.465-2.5-2.95-2.5-1.656 0-3 1.344-3 3 0 1.657 1.344 3 3 3 1.485 0 2.71-1.082 2.95-2.5h2.717v7.126h5.092c0.244 1.683 1.679 2.979 3.429 2.979 1.921 0 3.479-1.559 3.479-3.479S93.316 68.344 91.396 68.344z" fill="#ffffff" data-fill-palette-color="quaternary"></path><path d="M8.396 31.194c1.75 0 3.185-1.296 3.429-2.979h0.717v9.232h6.05c0.239 1.417 1.464 2.5 2.95 2.5 1.656 0 3-1.344 3-3 0-1.657-1.344-3-3-3-1.486 0-2.71 1.082-2.95 2.5h-5.05v-9.232h-1.717c-0.244-1.683-1.679-2.979-3.429-2.979-1.921 0-3.479 1.558-3.479 3.479S6.475 31.194 8.396 31.194z" fill="#ffffff" data-fill-palette-color="quaternary"></path><path d="M7.063 42.606v3.383h11.508c-0.009 0.097-0.029 0.191-0.029 0.291 0 1.657 1.343 3 3 3 1.656 0 3-1.343 3-3 0-1.656-1.344-3-3-3-1.193 0-2.214 0.701-2.697 1.709H8.063v-2.383c1.682-0.245 2.979-1.679 2.979-3.429 0-1.921-1.558-3.479-3.479-3.479s-3.479 1.558-3.479 3.479C4.084 40.927 5.381 42.361 7.063 42.606z" fill="#ffffff" data-fill-palette-color="quaternary"></path><path d="M10.992 60.239h3.383v-4.333h4.188c0.109 1.558 1.394 2.791 2.979 2.791 1.656 0 3-1.343 3-3 0-1.656-1.344-3-3-3-1.381 0-2.532 0.939-2.881 2.209h-5.286v4.333h-2.383c-0.245-1.683-1.679-2.979-3.429-2.979-1.921 0-3.479 1.559-3.479 3.479s1.558 3.479 3.479 3.479C9.313 63.219 10.747 61.922 10.992 60.239z" fill="#ffffff" data-fill-palette-color="quaternary"></path><path d="M35.646 81.439c1.417-0.24 2.5-1.465 2.5-2.95 0-1.656-1.344-3-3-3-1.657 0-3 1.344-3 3 0 1.485 1.082 2.71 2.5 2.95v3.029h-6.675c-0.244-1.683-1.679-2.979-3.429-2.979-1.921 0-3.479 1.558-3.479 3.479 0 1.921 1.558 3.479 3.479 3.479 1.75 0 3.185-1.297 3.429-2.979h7.675V81.439z" fill="#ffffff" data-fill-palette-color="quaternary"></path></g></svg></g></svg></g><g></g></svg></g></svg></g></svg></g></svg></g><defs></defs></svg><rect width="333.90454557049503" height="333.90454557049503" fill="none" stroke="none" visibility="hidden"></rect></g></svg></g></svg>